<svg xmlns="http://www.w3.org/2000/svg" viewBox="0 0 177.66 170.05"><defs><style>.cls-1{fill:#ffcc09;}.cls-2{fill:#fff;}.cls-3{fill:#6aa742;}.cls-4{fill:#dbdbdb;}.cls-5{fill:#8bc53f;}.cls-6{fill:#5382b1;}.cls-7{fill:none;}.cls-8{fill:#ceb2b2;}.cls-9{fill:#f4e4e4;}.cls-10{fill:#e0c3c3;}.cls-11{fill:#222221;}.cls-12{fill:#7694cb;}</style></defs><g id="Layer_2" data-name="Layer 2"><g id="Layer_1-2" data-name="Layer 1"><g id="Layer_2-2" data-name="Layer 2"><g id="OBJECTS"><path class="cls-1" d="M177.66,158.89c0,1.08-10.31,2-23,2s-23-.88-23-2,10.3-2,23-2S177.66,157.8,177.66,158.89Z"/><path class="cls-1" d="M137,99.12a15.43,15.43,0,0,1-7.41-7.92l5.92-1.29-5.6-4.62S129.48,71.62,140.17,66l3.74,4-1-6.16a29,29,0,0,1,17.6-7.11s5.63.35,5.79,18.26l-5,1.9,4.06,2.31s-2.11,10-5.83,14.11l-7.36-.24,5,4.31S149.33,105.26,137,99.12Z"/><path class="cls-2" d="M158.94,60.2q-4.26,7.71-8.3,15.58c-4.09,7.89-8.47,15.92-11.31,24.36-.13.37.46.61.59.22,2.8-8.26,7.05-16.1,11-23.83q4.14-8,8.47-16c.19-.35-.32-.72-.52-.37Z"/><path class="cls-1" d="M139.29,100.37c-1.6,4.23-2.86,8.61-4.06,13a227.37,227.37,0,0,0-6.38,32c0,.41.6.41.65,0A230.45,230.45,0,0,1,136,113.12c1.17-4.23,2.41-8.47,4-12.58C140.06,100.15,139.43,100,139.29,100.37Z"/><path class="cls-1" d="M122.71,90.31a15.37,15.37,0,0,0,7.41-7.91l-5.92-1.29,5.61-4.62s.43-13.7-10.29-19.34l-3.74,4,1-6.16a29.06,29.06,0,0,0-17.6-7.11s-5.64.34-5.8,18.26l5,1.91-4,2.31s2.1,10,5.82,14.11l7.36-.23-5,4.29S110.39,96.45,122.71,90.31Z"/><path class="cls-2" d="M100.77,51.39Q105,59.1,109.08,67c4.08,7.89,8.47,15.92,11.31,24.35.13.38-.46.61-.59.23-2.79-8.26-7-16.1-11-23.83q-4.14-8-8.47-16c-.2-.34.31-.71.5-.36Z"/><path class="cls-1" d="M120.43,91.55c1.59,4.24,2.85,8.61,4.06,13a228.78,228.78,0,0,1,6.37,32c.06.41-.59.4-.64,0a229.17,229.17,0,0,0-6.46-32.18c-1.16-4.22-2.41-8.47-4-12.57C119.66,91.33,120.28,91.17,120.43,91.55Z"/><path class="cls-3" d="M119.91,143.55a66.66,66.66,0,0,1,6.93-20.69l0,0h0a.25.25,0,0,1,.22-.09h8a.31.31,0,0,1,.28.16c3,6.89,5.7,14.11,6.5,21.62.39,3.57.27,7.49-1.5,10.71a8.11,8.11,0,0,1-4,3.63c-1.48.61-3.12.35-4.69.35s-3.68.32-5.31-.17a9,9,0,0,1-4.62-3.15C119.26,152.36,119.38,147.65,119.91,143.55Z"/><path class="cls-2" d="M136,153a.89.89,0,1,0,1.13-.82A1,1,0,0,0,136,153Z"/><path class="cls-2" d="M137.19,149.45c.16.86.67,1.48,1.13,1.4s.71-.86.54-1.72-.67-1.49-1.13-1.4S137,148.59,137.19,149.45Z"/><path class="cls-1" d="M126.49,159.22c0,1.54-24.28,2.84-54.23,2.84S18,160.79,18,159.22s24.28-2.84,54.23-2.84S126.49,157.65,126.49,159.22Z"/><path class="cls-4" d="M151.73,147.1s1.61-1.48-.51-5.72-1.22-7.83,1.09-9.76.38-5.32-.64-6.61c0,0,5.32,2.82,4.36,6.73s-4.81,2.81-3.08,9.51C154.16,146.07,153.21,145.89,151.73,147.1Z"/><path class="cls-5" d="M164.92,150.55c-.51-2.15-2.8-2.64-4.77-2.52,0-.77,0-1.54-.07-2.27,0-.1-.05-.18-.14-.18H145.09c-.08,0-.12.07-.13.15h0a22.33,22.33,0,0,0,1.88,11.14,12.55,12.55,0,0,0,1.11,1.95c.18.25.68.11.91.11h7.95c.35,0,.91-1.14,1.1-1.46a13.9,13.9,0,0,0,.81-1.7C161.82,155.88,165.84,154.43,164.92,150.55Zm-2.26,3.53a5.79,5.79,0,0,1-3.61.82,22.68,22.68,0,0,0,1.06-6c1.35-.11,3,.08,3.72,1.24S163.76,153.31,162.66,154.08Z"/><rect class="cls-1" x="1.96" y="22.84" width="27.2" height="19.53" rx="2.22" transform="translate(-10.75 7.85) rotate(-21.23)"/><path class="cls-2" d="M1.37,30.68c4.79,1.66,9.54,3.45,14.37,5,3,1,4-3.08,4.86-5.11,1.21-2.91,2.37-5.82,3.52-8.75.18-.46-.57-.66-.77-.21q-1.44,3.64-2.92,7.26c-.77,2-1.94,6.94-4.85,6l-14-4.92c-.47-.17-.67.58-.21.77Z"/><rect class="cls-1" x="43.95" y="-0.57" width="10.79" height="15.03" rx="1.22" transform="translate(29.28 52.56) rotate(-74.27)"/><path class="cls-2" d="M43.55,1.44,46,5.08a27.52,27.52,0,0,0,2.31,3.47C49.45,9.79,50.86,8.71,52,8c1.59-.93,3.16-1.89,4.72-2.85.43-.26,0-.92-.38-.66-1.23.77-6.57,4.87-7.61,3.32l-4.55-6.8c-.27-.41-.94,0-.67.39Z"/><path class="cls-1" d="M69.23,82.65s2.2,4.66,8.37.34c0,0,.44,1.84,5.7,2.76s8.78.86,11.25,7.83,18,31.72-1.69,41.15A38.82,38.82,0,0,1,86,135.8s-40,5.29-40.52-9c0,0-2.9-4.28,7.39-31.29,0,0,1-7.07,6.75-8S68.55,83.72,69.23,82.65Z"/><path class="cls-5" d="M60.85,94.28a.41.41,0,0,0-.07.26"/><path class="cls-6" d="M60.14,93.6a.87.87,0,0,0-.17.22h0a.86.86,0,0,1-.1.25v.07a1.58,1.58,0,0,0,0,.38.67.67,0,0,0,.08.37.77.77,0,0,0,.51.51.78.78,0,0,0,.37.09h.26a1,1,0,0,0,.42-.25l.15-.2a1,1,0,0,0,.13-.49v.06l-.1.23h0l-.14.19h0a.72.72,0,0,0,.2-.31,1,1,0,0,0-.2-1l-.19-.15a1.05,1.05,0,0,0-.49-.13h-.25a1,1,0,0,0-.43.25Z"/><path class="cls-6" d="M66.11,91.33a1,1,0,1,0-1-1A1,1,0,0,0,66.11,91.33Z"/><path class="cls-6" d="M71.58,95.69a1,1,0,1,0-1-1A1,1,0,0,0,71.58,95.69Z"/><path class="cls-6" d="M77.4,91.91a1,1,0,1,0-1-1A1,1,0,0,0,77.4,91.91Z"/><path class="cls-6" d="M84,95.37a1,1,0,0,0,0-1.93,1,1,0,1,0,0,1.93Z"/><path class="cls-5" d="M77,97.75h-.13"/><path class="cls-6" d="M77,96.79h-.13a.69.69,0,0,0-.37.08,1,1,0,0,0-.31.19,1.11,1.11,0,0,0-.28.69V98a.89.89,0,0,0,.25.43l.19.15a.91.91,0,0,0,.48.13h.13a.67.67,0,0,0,.37-.08.72.72,0,0,0,.31-.2.58.58,0,0,0,.2-.31.68.68,0,0,0,.09-.37V97.5a.92.92,0,0,0-.25-.44l-.19-.14A1,1,0,0,0,77,96.79Z"/><path class="cls-6" d="M66.11,100.25a1,1,0,1,0-1-1A1,1,0,0,0,66.11,100.25Z"/><path class="cls-6" d="M53,102.37a1,1,0,1,0-1-1A1,1,0,0,0,53,102.37Z"/><path class="cls-6" d="M55.65,94.72a1,1,0,1,0-1-1A1,1,0,0,0,55.65,94.72Z"/><path class="cls-6" d="M71.05,103.53a1,1,0,1,0-1-1A1,1,0,0,0,71.05,103.53Z"/><path class="cls-5" d="M87.29,98.94a.07.07,0,0,0,.07-.07h0"/><path class="cls-6" d="M87.29,99.9h0l.27,0h0l.23-.1h0a1,1,0,0,0,.2-.15,1.57,1.57,0,0,0,.17-.21h0l.1-.23h0V98.9a.85.85,0,0,0-.09-.38.79.79,0,0,0-.2-.31.72.72,0,0,0-.31-.2.91.91,0,0,0-.37-.08H87a1,1,0,0,0-.43.25l-.15.2a1.05,1.05,0,0,0-.13.49h0v-.26h0l.09-.23h0l.16-.2h0l.19-.15h0l.23-.1h.25a.78.78,0,0,0-.37.09.87.87,0,0,0-.51.51.67.67,0,0,0-.08.37v.25a1,1,0,0,0,.25.43l.19.15a1.05,1.05,0,0,0,.49.13Z"/><path class="cls-5" d="M93.1,97.75c0-.06.06-.06.06-.13"/><path class="cls-6" d="M94.06,97.75h0V98h0l-.1.24h0l-.15.19h0l.09-.12L94,98.2c0-.07.07-.16.1-.23h0V97.7a.78.78,0,0,0-.09-.37.58.58,0,0,0-.2-.31.64.64,0,0,0-.31-.2.78.78,0,0,0-.37-.09h-.25a.86.86,0,0,0-.42.25l-.16.19a1.05,1.05,0,0,0-.13.49h0V97.4h0l.09-.23h0l.16-.19h0l-.09.12a.39.39,0,0,0-.08.1,1.22,1.22,0,0,0-.1.24h0a1.22,1.22,0,0,0,0,.27.77.77,0,0,0,.07.37,1,1,0,0,0,.21.31.72.72,0,0,0,.31.2.69.69,0,0,0,.37.08l.25,0a1,1,0,0,0,.43-.25l.15-.19a1,1,0,0,0,.13-.49Z"/><path class="cls-6" d="M90.41,93.26a1,1,0,0,0,0-1.93,1,1,0,1,0,0,1.93Z"/><path class="cls-6" d="M83.27,104a1,1,0,1,0-1-1A1,1,0,0,0,83.27,104Z"/><path class="cls-6" d="M80.87,87.79a1,1,0,1,0-1-1A1,1,0,0,0,80.87,87.79Z"/><line class="cls-7" x1="71.64" y1="87.18" x2="71.58" y2="87.18"/><path class="cls-6" d="M71.63,86.25h-.06a.6.6,0,0,0-.37.09.87.87,0,0,0-.51.5.84.84,0,0,0-.09.37v.26a1,1,0,0,0,.26.42l.19.16a1.05,1.05,0,0,0,.49.13h.09a.6.6,0,0,0,.37-.09.72.72,0,0,0,.31-.2.58.58,0,0,0,.2-.31.67.67,0,0,0,.08-.37V87a.86.86,0,0,0-.25-.42l-.2-.16A.9.9,0,0,0,71.63,86.25Z"/><path class="cls-5" d="M91.08,102.82h.13"/><path class="cls-6" d="M91.08,103.78h.13a.71.71,0,0,0,.37-.08.75.75,0,0,0,.3-.2.64.64,0,0,0,.2-.31.62.62,0,0,0,.09-.37v-.26a.86.86,0,0,0-.25-.42l-.19-.15a1.07,1.07,0,0,0-.49-.14h-.13a.84.84,0,0,0-.37.09.87.87,0,0,0-.5.51.78.78,0,0,0-.09.37v.25a.89.89,0,0,0,.25.43l.19.15A1,1,0,0,0,91.08,103.78Z"/><path class="cls-6" d="M96.34,104.74a1,1,0,1,0,0-1.93,1,1,0,0,0,0,1.93Z"/><path class="cls-6" d="M46.79,122.2a1,1,0,1,0-1-1A1,1,0,0,0,46.79,122.2Z"/><path class="cls-6" d="M47.24,125.92a1,1,0,1,0-1-1A1,1,0,0,0,47.24,125.92Z"/><path class="cls-6" d="M100.26,115.66a1,1,0,1,0-1-1A1,1,0,0,0,100.26,115.66Z"/><path class="cls-6" d="M100.83,122.78a1,1,0,1,0-1-1A1,1,0,0,0,100.83,122.78Z"/><path class="cls-6" d="M58.27,102.86a1,1,0,1,0-1-1A1,1,0,0,0,58.27,102.86Z"/><path class="cls-6" d="M63.54,104.84a1,1,0,1,0-1-1A1,1,0,0,0,63.54,104.84Z"/><path class="cls-6" d="M47.66,115.63a1,1,0,1,0-1-1A1,1,0,0,0,47.66,115.63Z"/><path class="cls-6" d="M77.21,105.13a1,1,0,1,0-1-1A1,1,0,0,0,77.21,105.13Z"/><path class="cls-6" d="M85.78,89.15a1,1,0,1,0-1-1A1,1,0,0,0,85.78,89.15Z"/><path class="cls-6" d="M59.69,89.82a1,1,0,1,0-1-1A1,1,0,0,0,59.69,89.82Z"/><path class="cls-8" d="M67.49,74.19s3.38,4.46,1.37,9.68,7.23,8,9.32,1.54c0,0-3.08-8.19,3.46-11.21"/><path class="cls-9" d="M50.32,158.3s-5.61,1.43-7.21,3.29.28,6.16,8.86,2.79"/><path class="cls-7" d="M42.6,163.27a1.18,1.18,0,0,1,.29-1.05l.31,2A2.23,2.23,0,0,1,42.6,163.27Z"/><path class="cls-5" d="M47.38,159.23a18.64,18.64,0,0,0-3.85,2.27l-.28-1.75A19.79,19.79,0,0,1,47.38,159.23Z"/><path class="cls-5" d="M35.38,161.61l1.27,7.92c-.57.1-1.15.17-1.71.22l-1.23-7.7Z"/><path class="cls-5" d="M32.4,162.34l.56-.12,1.21,7.58a15.14,15.14,0,0,1-1.65,0l-1.14-7.12A7.18,7.18,0,0,1,32.4,162.34Z"/><path class="cls-5" d="M40.15,160.43l1.27,8c-.52.15-1.05.31-1.58.45l-1.28-8Z"/><path class="cls-5" d="M37.8,161l1.29,8-1.68.36-1.28-8Z"/><path class="cls-5" d="M42.52,159.9l.37,2.31a1.19,1.19,0,0,0-.29,1,2.23,2.23,0,0,0,.6.91l.56,3.48-1.6.54-1.26-7.93Z"/><path class="cls-5" d="M49.29,165.25a28.41,28.41,0,0,1-4.76,2.09l-.42-2.58A8,8,0,0,0,49.29,165.25Z"/><path class="cls-1" d="M40.9,160.26l1.26,7.9-.77.24-1.27-8Z"/><path class="cls-1" d="M44.08,164.76l.41,2.58-.77.28-.55-3.48A3.57,3.57,0,0,0,44.08,164.76Z"/><path class="cls-1" d="M42.89,162.18l-.37-2.31.77-.15.29,1.75A4.21,4.21,0,0,0,42.89,162.18Z"/><path class="cls-1" d="M38.56,160.82l1.28,8-.78.19-1.28-8Z"/><path class="cls-1" d="M28.41,164.56a6.3,6.3,0,0,1,.68-.58,9.49,9.49,0,0,1,1.54-1,5.28,5.28,0,0,1,.73-.33l1.14,7.12-.77-.08a9.34,9.34,0,0,1-1.28-.25l-.51-.16a8.61,8.61,0,0,1-.83-.31C26.37,167.79,26.9,166,28.41,164.56Z"/><path class="cls-1" d="M33.71,162l1.23,7.7-.77,0L33,162.21Z"/><path class="cls-1" d="M36.13,161.42l1.28,8-.77.13-1.26-7.92Z"/><path class="cls-9" d="M103.44,158.52s5.61,1.42,7.21,3.29-.28,6.16-8.87,2.78"/><path class="cls-7" d="M111.15,163.44a1.15,1.15,0,0,0-.28-1.05l-.32,2A2.23,2.23,0,0,0,111.15,163.44Z"/><path class="cls-5" d="M106.37,159.42a18.64,18.64,0,0,1,3.85,2.27l.28-1.75A20.57,20.57,0,0,0,106.37,159.42Z"/><path class="cls-5" d="M118.38,161.82l-1.27,7.92c.57.1,1.14.17,1.71.22l1.23-7.7Z"/><path class="cls-5" d="M121.35,162.55l-.55-.12L119.59,170a15.14,15.14,0,0,0,1.65,0l1.14-7.13A8.83,8.83,0,0,0,121.35,162.55Z"/><path class="cls-5" d="M113.61,160.64l-1.27,8,1.59.44,1.27-8Z"/><path class="cls-5" d="M116,161.21l-1.29,8,1.68.36,1.27-8Z"/><path class="cls-5" d="M111.23,160.11l-.36,2.31a1.15,1.15,0,0,1,.28,1.05,2.23,2.23,0,0,1-.6.91l-.55,3.48,1.6.54,1.26-7.9C112.31,160.34,111.76,160.23,111.23,160.11Z"/><path class="cls-5" d="M104.5,165.46a29.39,29.39,0,0,0,4.77,2.1l.4-2.59A8.06,8.06,0,0,1,104.5,165.46Z"/><path class="cls-1" d="M112.86,160.47l-1.26,7.9.77.24,1.27-8Z"/><path class="cls-1" d="M109.67,165l-.4,2.59.73.27.55-3.48A3.25,3.25,0,0,1,109.67,165Z"/><path class="cls-1" d="M110.91,162.39l.36-2.31-.77-.15-.28,1.74A3.92,3.92,0,0,1,110.91,162.39Z"/><path class="cls-1" d="M115.2,161l-1.27,8,.77.2,1.28-8Z"/><path class="cls-1" d="M125.36,164.81a7.68,7.68,0,0,0-.69-.59,10.23,10.23,0,0,0-1.54-1c-.25-.12-.49-.24-.72-.33l-1.14,7.13L122,170a11,11,0,0,0,1.27-.25l.51-.16c.3-.1.58-.21.83-.31C127.39,168,126.86,166.2,125.36,164.81Z"/><path class="cls-1" d="M120.05,162.24,118.82,170l.77,0,1.21-7.58Z"/><path class="cls-1" d="M117.62,161.63l-1.27,8,.77.13,1.27-7.92Z"/><path class="cls-3" d="M99.2,125.94s17.65,30.44-4.44,32.58-54.66,8.6-48-16.28,8.15-16.3,8.15-16.3"/><path class="cls-5" d="M49.11,158.83c.28-.66,21.62-8.13,34.51-14.48s32.73-22.22,44.44-12.32-16.67,23.81-31.58,25.59-45.23,6.93-45.23,6.93S47.12,163.59,49.11,158.83Z"/><path class="cls-5" d="M104,158.65c-.14-.7-21.63-8-34.52-14.3S36.72,122.13,25,132s16.66,23.81,31.58,25.59,45.23,6.93,45.23,6.93S104.79,163.27,104,158.65Z"/><path class="cls-10" d="M85.88,62.68C85,72.47,79.38,80,73.25,79.44s-10.38-8.9-9.52-18.69S70.23,43.46,76.35,44,86.73,52.89,85.88,62.68Z"/><path class="cls-11" d="M83.23,60.6s2,13.64-5.56,17.83c0,0-1.54,4.48.46,4.22S92,76.81,92.76,65.38,87.29,54.3,87.29,54.3s2.61-5.46-5.67-9.89-19.23-4-29.65,9.08S48.48,76.11,38.11,81,20,97.45,25.5,108.29s18,8.28,23.56,0S51.6,91.64,60.14,88.56C68.86,85.48,71.85,82,68.78,75c0,0-2.58-6.53-1.18-8.51a7.45,7.45,0,0,0,1.75,2.31c.75.39.35-1.34.35-2.68s2.85-3.08,5.59-2.57S82.76,62.47,83.23,60.6Z"/><rect class="cls-4" x="48.62" y="105.36" width="50.59" height="35.37" rx="2.29"/><circle class="cls-12" cx="74.42" cy="122.56" r="1.96"/></g></g></g></g></svg>